<?xml version="1.0" standalone="no"?>
<!DOCTYPE svg PUBLIC "-//W3C//DTD SVG 20010904//EN"
 "http://www.w3.org/TR/2001/REC-SVG-20010904/DTD/svg10.dtd">
<svg version="1.0" xmlns="http://www.w3.org/2000/svg"
 width="400.000000pt" height="86.000000pt" viewBox="0 0 400.000000 86.000000"
 preserveAspectRatio="xMidYMid meet">
<metadata>
Created by potrace 1.15, written by Peter Selinger 2001-2017
</metadata>
<g transform="translate(0.000000,86.000000) scale(0.100000,-0.100000)"
fill="#000000" stroke="none">
<path d="M1400 545 c0 -51 -10 -69 -25 -45 -3 6 -28 10 -54 10 -39 0 -52 -5
-76 -29 -23 -25 -28 -39 -29 -83 0 -66 23 -103 76 -119 29 -9 44 -9 68 1 25
11 35 10 55 0 14 -7 26 -11 28 -9 2 2 1 77 -1 167 -4 151 -5 162 -23 162 -16
0 -19 -8 -19 -55z m-33 -87 c28 -20 33 -29 33 -62 0 -71 -64 -111 -110 -68
-48 44 -43 109 9 137 33 18 29 19 68 -7z"/>
<path d="M2560 440 c0 -153 1 -160 20 -160 18 0 20 7 20 71 0 66 2 73 31 100
26 24 34 26 53 17 26 -11 36 -48 36 -135 0 -46 3 -53 20 -53 18 0 20 7 20 88
0 116 -11 136 -74 140 -27 2 -54 -2 -59 -7 -21 -21 -27 -11 -27 44 0 48 -2 55
-20 55 -19 0 -20 -7 -20 -160z"/>
<path d="M800 435 l0 -155 110 0 c91 0 110 3 110 15 0 12 -17 15 -90 15 l-90
0 0 140 c0 133 -1 140 -20 140 -19 0 -20 -7 -20 -155z"/>
<path d="M1890 580 c0 -5 6 -13 13 -17 7 -4 30 -33 52 -63 22 -30 43 -57 47
-58 8 -4 -25 -57 -46 -77 -6 -5 -24 -27 -39 -47 l-28 -38 30 0 c25 0 36 9 68
55 21 30 41 55 45 55 4 0 26 -25 48 -55 30 -41 47 -55 65 -55 18 0 23 4 19 15
-4 8 -10 15 -15 15 -5 0 -9 6 -9 14 0 8 -3 16 -8 18 -4 2 -22 23 -39 47 l-32
43 55 73 c30 41 54 76 54 79 0 4 -10 6 -22 6 -16 -1 -37 -19 -68 -59 l-45 -58
-22 24 c-13 13 -23 28 -23 34 0 5 -4 9 -8 9 -5 0 -15 11 -22 25 -9 18 -22 25
-42 25 -15 0 -28 -4 -28 -10z"/>
<path d="M2430 550 l0 -40 -45 0 c-38 0 -45 -3 -45 -19 0 -11 -4 -22 -8 -25
-5 -3 -17 -32 -28 -65 -20 -63 -30 -74 -40 -43 -9 26 -25 64 -40 94 -8 14 -14
33 -14 42 0 11 -9 16 -26 16 -29 0 -28 -8 13 -100 37 -82 41 -93 48 -116 7
-26 -13 -74 -32 -74 -7 0 -13 -9 -13 -20 0 -22 20 -26 49 -10 10 5 29 35 41
67 12 32 33 81 46 110 13 28 24 56 24 61 0 27 26 57 48 54 21 -3 22 -8 22 -98
0 -90 1 -95 24 -105 16 -8 34 -8 53 -2 37 13 38 39 1 35 -36 -4 -48 21 -48
102 l0 66 30 0 c20 0 30 5 30 15 0 10 -10 15 -30 15 -28 0 -30 2 -30 40 0 29
-4 40 -15 40 -11 0 -15 -11 -15 -40z"/>
<path d="M980 500 c0 -5 20 -55 45 -110 25 -55 45 -104 45 -110 0 -20 -24 -60
-37 -60 -7 0 -13 -9 -13 -20 0 -23 27 -27 52 -7 9 6 35 59 58 117 23 58 46
114 52 124 6 11 14 32 19 48 7 25 5 28 -16 28 -19 0 -26 -8 -35 -37 -6 -21
-21 -60 -33 -87 l-22 -49 -14 29 c-8 16 -18 40 -23 54 -25 64 -42 90 -60 90
-10 0 -18 -4 -18 -10z"/>
<path d="M1603 498 c-13 -6 -23 -15 -23 -20 0 -16 31 -21 56 -7 33 17 75 2 84
-31 7 -25 6 -25 -50 -25 -70 0 -100 -21 -100 -71 0 -58 64 -90 125 -62 21 9
31 9 47 -1 11 -7 24 -9 28 -4 4 4 4 49 1 99 -8 116 -21 134 -95 133 -28 0 -61
-5 -73 -11z"/>
<path d="M2828 499 c-10 -5 -18 -17 -18 -24 0 -17 35 -20 45 -5 10 17 54 11
75 -10 35 -35 25 -45 -39 -45 -44 -1 -65 -6 -80 -19 -30 -27 -27 -71 5 -101
31 -29 71 -32 114 -10 17 9 30 11 30 6 0 -8 30 -24 36 -19 1 2 -1 49 -6 106
-6 83 -12 106 -26 117 -22 17 -111 19 -136 4z"/>
</g>
</svg>
